<mxfile host="app.diagrams.net" agent="Mozilla/5.0 (Windows NT 10.0; Win64; x64) AppleWebKit/537.36 (KHTML, like Gecko) Chrome/135.0.0.0 Safari/537.36" version="26.2.14">
  <diagram id="C5RBs43oDa-KdzZeNtuy" name="Page-1">
    <mxGraphModel dx="1594" dy="1873" grid="1" gridSize="10" guides="1" tooltips="1" connect="1" arrows="1" fold="1" page="1" pageScale="1" pageWidth="827" pageHeight="1169" background="#ffffff" math="0" shadow="0">
      <root>
        <mxCell id="WIyWlLk6GJQsqaUBKTNV-0" />
        <mxCell id="WIyWlLk6GJQsqaUBKTNV-1" parent="WIyWlLk6GJQsqaUBKTNV-0" />
        <mxCell id="jbLbkhpGSwv3w22Gmv-Q-5" style="edgeStyle=orthogonalEdgeStyle;rounded=0;orthogonalLoop=1;jettySize=auto;html=1;exitX=0.25;exitY=1;exitDx=0;exitDy=0;entryX=0.5;entryY=0;entryDx=0;entryDy=0;" edge="1" parent="WIyWlLk6GJQsqaUBKTNV-1" source="jbLbkhpGSwv3w22Gmv-Q-0" target="jbLbkhpGSwv3w22Gmv-Q-4">
          <mxGeometry relative="1" as="geometry" />
        </mxCell>
        <mxCell id="jbLbkhpGSwv3w22Gmv-Q-35" style="edgeStyle=orthogonalEdgeStyle;rounded=0;orthogonalLoop=1;jettySize=auto;html=1;exitX=0.5;exitY=0;exitDx=0;exitDy=0;" edge="1" parent="WIyWlLk6GJQsqaUBKTNV-1" source="jbLbkhpGSwv3w22Gmv-Q-0" target="jbLbkhpGSwv3w22Gmv-Q-34">
          <mxGeometry relative="1" as="geometry" />
        </mxCell>
        <mxCell id="jbLbkhpGSwv3w22Gmv-Q-0" value="Users/&lt;div&gt;Passangers&lt;/div&gt;" style="rounded=0;whiteSpace=wrap;html=1;fillColor=#fff2cc;strokeColor=#d6b656;" vertex="1" parent="WIyWlLk6GJQsqaUBKTNV-1">
          <mxGeometry x="60" y="240" width="90" height="40" as="geometry" />
        </mxCell>
        <mxCell id="jbLbkhpGSwv3w22Gmv-Q-18" style="edgeStyle=orthogonalEdgeStyle;rounded=0;orthogonalLoop=1;jettySize=auto;html=1;exitX=0.5;exitY=0;exitDx=0;exitDy=0;entryX=0.5;entryY=1;entryDx=0;entryDy=0;" edge="1" parent="WIyWlLk6GJQsqaUBKTNV-1" source="jbLbkhpGSwv3w22Gmv-Q-1" target="jbLbkhpGSwv3w22Gmv-Q-9">
          <mxGeometry relative="1" as="geometry" />
        </mxCell>
        <mxCell id="jbLbkhpGSwv3w22Gmv-Q-1" value="System" style="rounded=0;whiteSpace=wrap;html=1;fillColor=#fff2cc;strokeColor=#d6b656;" vertex="1" parent="WIyWlLk6GJQsqaUBKTNV-1">
          <mxGeometry x="250" y="560" width="100" height="40" as="geometry" />
        </mxCell>
        <mxCell id="jbLbkhpGSwv3w22Gmv-Q-2" value="Drivers" style="rounded=0;whiteSpace=wrap;html=1;fillColor=#fff2cc;strokeColor=#d6b656;" vertex="1" parent="WIyWlLk6GJQsqaUBKTNV-1">
          <mxGeometry x="580" y="230" width="80" height="40" as="geometry" />
        </mxCell>
        <mxCell id="jbLbkhpGSwv3w22Gmv-Q-20" style="edgeStyle=orthogonalEdgeStyle;rounded=0;orthogonalLoop=1;jettySize=auto;html=1;exitX=1;exitY=0.5;exitDx=0;exitDy=0;entryX=0.5;entryY=0;entryDx=0;entryDy=0;" edge="1" parent="WIyWlLk6GJQsqaUBKTNV-1" source="jbLbkhpGSwv3w22Gmv-Q-3" target="jbLbkhpGSwv3w22Gmv-Q-19">
          <mxGeometry relative="1" as="geometry" />
        </mxCell>
        <mxCell id="jbLbkhpGSwv3w22Gmv-Q-3" value="Administrators" style="rounded=0;whiteSpace=wrap;html=1;fillColor=#fff2cc;strokeColor=#d6b656;" vertex="1" parent="WIyWlLk6GJQsqaUBKTNV-1">
          <mxGeometry x="364" y="20" width="100" height="40" as="geometry" />
        </mxCell>
        <mxCell id="jbLbkhpGSwv3w22Gmv-Q-23" style="edgeStyle=orthogonalEdgeStyle;rounded=0;orthogonalLoop=1;jettySize=auto;html=1;exitX=0.5;exitY=1;exitDx=0;exitDy=0;entryX=0.5;entryY=0;entryDx=0;entryDy=0;" edge="1" parent="WIyWlLk6GJQsqaUBKTNV-1" source="jbLbkhpGSwv3w22Gmv-Q-4" target="jbLbkhpGSwv3w22Gmv-Q-22">
          <mxGeometry relative="1" as="geometry" />
        </mxCell>
        <mxCell id="jbLbkhpGSwv3w22Gmv-Q-4" value="user account" style="ellipse;whiteSpace=wrap;html=1;fillColor=#dae8fc;strokeColor=#6c8ebf;" vertex="1" parent="WIyWlLk6GJQsqaUBKTNV-1">
          <mxGeometry x="-10" y="390" width="100" height="50" as="geometry" />
        </mxCell>
        <mxCell id="jbLbkhpGSwv3w22Gmv-Q-24" style="edgeStyle=orthogonalEdgeStyle;rounded=0;orthogonalLoop=1;jettySize=auto;html=1;exitX=0.5;exitY=1;exitDx=0;exitDy=0;entryX=1;entryY=0.5;entryDx=0;entryDy=0;" edge="1" parent="WIyWlLk6GJQsqaUBKTNV-1" source="jbLbkhpGSwv3w22Gmv-Q-6" target="jbLbkhpGSwv3w22Gmv-Q-22">
          <mxGeometry relative="1" as="geometry" />
        </mxCell>
        <mxCell id="jbLbkhpGSwv3w22Gmv-Q-6" value="Manage Users" style="ellipse;whiteSpace=wrap;html=1;fillColor=#dae8fc;strokeColor=#6c8ebf;" vertex="1" parent="WIyWlLk6GJQsqaUBKTNV-1">
          <mxGeometry x="320" y="160" width="130" height="50" as="geometry" />
        </mxCell>
        <mxCell id="jbLbkhpGSwv3w22Gmv-Q-7" style="edgeStyle=orthogonalEdgeStyle;rounded=0;orthogonalLoop=1;jettySize=auto;html=1;exitX=0.5;exitY=1;exitDx=0;exitDy=0;entryX=0.537;entryY=0.009;entryDx=0;entryDy=0;entryPerimeter=0;" edge="1" parent="WIyWlLk6GJQsqaUBKTNV-1" source="jbLbkhpGSwv3w22Gmv-Q-3" target="jbLbkhpGSwv3w22Gmv-Q-6">
          <mxGeometry relative="1" as="geometry" />
        </mxCell>
        <mxCell id="jbLbkhpGSwv3w22Gmv-Q-33" style="edgeStyle=orthogonalEdgeStyle;rounded=0;orthogonalLoop=1;jettySize=auto;html=1;exitX=1;exitY=0.5;exitDx=0;exitDy=0;entryX=0;entryY=0.5;entryDx=0;entryDy=0;" edge="1" parent="WIyWlLk6GJQsqaUBKTNV-1" source="jbLbkhpGSwv3w22Gmv-Q-9" target="jbLbkhpGSwv3w22Gmv-Q-29">
          <mxGeometry relative="1" as="geometry" />
        </mxCell>
        <mxCell id="jbLbkhpGSwv3w22Gmv-Q-9" value="view timetable" style="ellipse;whiteSpace=wrap;html=1;fillColor=#dae8fc;strokeColor=#6c8ebf;" vertex="1" parent="WIyWlLk6GJQsqaUBKTNV-1">
          <mxGeometry x="190" y="390" width="100" height="50" as="geometry" />
        </mxCell>
        <mxCell id="jbLbkhpGSwv3w22Gmv-Q-10" style="edgeStyle=orthogonalEdgeStyle;rounded=0;orthogonalLoop=1;jettySize=auto;html=1;exitX=0.75;exitY=1;exitDx=0;exitDy=0;entryX=0.076;entryY=0.156;entryDx=0;entryDy=0;entryPerimeter=0;" edge="1" parent="WIyWlLk6GJQsqaUBKTNV-1" source="jbLbkhpGSwv3w22Gmv-Q-0" target="jbLbkhpGSwv3w22Gmv-Q-9">
          <mxGeometry relative="1" as="geometry" />
        </mxCell>
        <mxCell id="jbLbkhpGSwv3w22Gmv-Q-11" style="edgeStyle=orthogonalEdgeStyle;rounded=0;orthogonalLoop=1;jettySize=auto;html=1;exitX=0.5;exitY=1;exitDx=0;exitDy=0;entryX=0.657;entryY=0.031;entryDx=0;entryDy=0;entryPerimeter=0;" edge="1" parent="WIyWlLk6GJQsqaUBKTNV-1" source="jbLbkhpGSwv3w22Gmv-Q-2" target="jbLbkhpGSwv3w22Gmv-Q-9">
          <mxGeometry relative="1" as="geometry" />
        </mxCell>
        <mxCell id="jbLbkhpGSwv3w22Gmv-Q-12" style="edgeStyle=orthogonalEdgeStyle;rounded=0;orthogonalLoop=1;jettySize=auto;html=1;entryX=0.394;entryY=0.031;entryDx=0;entryDy=0;entryPerimeter=0;" edge="1" parent="WIyWlLk6GJQsqaUBKTNV-1" source="jbLbkhpGSwv3w22Gmv-Q-3" target="jbLbkhpGSwv3w22Gmv-Q-9">
          <mxGeometry relative="1" as="geometry" />
        </mxCell>
        <mxCell id="jbLbkhpGSwv3w22Gmv-Q-27" style="edgeStyle=orthogonalEdgeStyle;rounded=0;orthogonalLoop=1;jettySize=auto;html=1;exitX=0.5;exitY=1;exitDx=0;exitDy=0;entryX=1;entryY=0.75;entryDx=0;entryDy=0;" edge="1" parent="WIyWlLk6GJQsqaUBKTNV-1" source="jbLbkhpGSwv3w22Gmv-Q-14" target="jbLbkhpGSwv3w22Gmv-Q-25">
          <mxGeometry relative="1" as="geometry" />
        </mxCell>
        <mxCell id="jbLbkhpGSwv3w22Gmv-Q-14" value="Real-time tracking&amp;nbsp;" style="ellipse;whiteSpace=wrap;html=1;fillColor=#dae8fc;strokeColor=#6c8ebf;" vertex="1" parent="WIyWlLk6GJQsqaUBKTNV-1">
          <mxGeometry x="565" y="360" width="110" height="50" as="geometry" />
        </mxCell>
        <mxCell id="jbLbkhpGSwv3w22Gmv-Q-15" style="edgeStyle=orthogonalEdgeStyle;rounded=0;orthogonalLoop=1;jettySize=auto;html=1;entryX=0.5;entryY=0.2;entryDx=0;entryDy=0;entryPerimeter=0;" edge="1" parent="WIyWlLk6GJQsqaUBKTNV-1" source="jbLbkhpGSwv3w22Gmv-Q-2" target="jbLbkhpGSwv3w22Gmv-Q-14">
          <mxGeometry relative="1" as="geometry" />
        </mxCell>
        <mxCell id="jbLbkhpGSwv3w22Gmv-Q-26" style="edgeStyle=orthogonalEdgeStyle;rounded=0;orthogonalLoop=1;jettySize=auto;html=1;exitX=0.5;exitY=1;exitDx=0;exitDy=0;entryX=0.5;entryY=0;entryDx=0;entryDy=0;" edge="1" parent="WIyWlLk6GJQsqaUBKTNV-1" source="jbLbkhpGSwv3w22Gmv-Q-16" target="jbLbkhpGSwv3w22Gmv-Q-25">
          <mxGeometry relative="1" as="geometry" />
        </mxCell>
        <mxCell id="jbLbkhpGSwv3w22Gmv-Q-16" value="Real-time location&lt;div&gt;&amp;nbsp;updates&amp;nbsp;&lt;/div&gt;" style="ellipse;whiteSpace=wrap;html=1;fillColor=#dae8fc;strokeColor=#6c8ebf;" vertex="1" parent="WIyWlLk6GJQsqaUBKTNV-1">
          <mxGeometry x="460" y="595" width="120" height="70" as="geometry" />
        </mxCell>
        <mxCell id="jbLbkhpGSwv3w22Gmv-Q-17" style="edgeStyle=orthogonalEdgeStyle;rounded=0;orthogonalLoop=1;jettySize=auto;html=1;exitX=0.5;exitY=1;exitDx=0;exitDy=0;entryX=0;entryY=0.5;entryDx=0;entryDy=0;" edge="1" parent="WIyWlLk6GJQsqaUBKTNV-1" source="jbLbkhpGSwv3w22Gmv-Q-1" target="jbLbkhpGSwv3w22Gmv-Q-16">
          <mxGeometry relative="1" as="geometry" />
        </mxCell>
        <mxCell id="jbLbkhpGSwv3w22Gmv-Q-32" style="edgeStyle=orthogonalEdgeStyle;rounded=0;orthogonalLoop=1;jettySize=auto;html=1;exitX=0.5;exitY=1;exitDx=0;exitDy=0;entryX=0.5;entryY=0;entryDx=0;entryDy=0;" edge="1" parent="WIyWlLk6GJQsqaUBKTNV-1" source="jbLbkhpGSwv3w22Gmv-Q-19" target="jbLbkhpGSwv3w22Gmv-Q-29">
          <mxGeometry relative="1" as="geometry" />
        </mxCell>
        <mxCell id="jbLbkhpGSwv3w22Gmv-Q-19" value="Manage schedule" style="ellipse;whiteSpace=wrap;html=1;fillColor=#dae8fc;strokeColor=#6c8ebf;" vertex="1" parent="WIyWlLk6GJQsqaUBKTNV-1">
          <mxGeometry x="490" y="100" width="130" height="50" as="geometry" />
        </mxCell>
        <mxCell id="jbLbkhpGSwv3w22Gmv-Q-22" value="User Database" style="shape=partialRectangle;whiteSpace=wrap;html=1;left=0;right=0;fillColor=light-dark(#dee8de, #1f2f1e);strokeColor=light-dark(#82b366, #ededed);shadow=1;" vertex="1" parent="WIyWlLk6GJQsqaUBKTNV-1">
          <mxGeometry x="50" y="490" width="100" height="30" as="geometry" />
        </mxCell>
        <mxCell id="jbLbkhpGSwv3w22Gmv-Q-25" value="Buses Database" style="shape=partialRectangle;whiteSpace=wrap;html=1;left=0;right=0;fillColor=light-dark(#dee8de, #1f2f1e);strokeColor=light-dark(#82b366, #ededed);shadow=1;" vertex="1" parent="WIyWlLk6GJQsqaUBKTNV-1">
          <mxGeometry x="470" y="725" width="100" height="30" as="geometry" />
        </mxCell>
        <mxCell id="jbLbkhpGSwv3w22Gmv-Q-29" value="Operations Database" style="shape=partialRectangle;whiteSpace=wrap;html=1;left=0;right=0;fillColor=light-dark(#dee8de, #1f2f1e);strokeColor=light-dark(#82b366, #ededed);shadow=1;" vertex="1" parent="WIyWlLk6GJQsqaUBKTNV-1">
          <mxGeometry x="429" y="405" width="100" height="30" as="geometry" />
        </mxCell>
        <mxCell id="jbLbkhpGSwv3w22Gmv-Q-34" value="Buy a ticket" style="ellipse;whiteSpace=wrap;html=1;fillColor=#dae8fc;strokeColor=#6c8ebf;" vertex="1" parent="WIyWlLk6GJQsqaUBKTNV-1">
          <mxGeometry x="90" y="150" width="100" height="50" as="geometry" />
        </mxCell>
        <mxCell id="jbLbkhpGSwv3w22Gmv-Q-36" value="Ticket Database" style="shape=partialRectangle;whiteSpace=wrap;html=1;left=0;right=0;fillColor=light-dark(#dee8de, #1f2f1e);strokeColor=light-dark(#82b366, #ededed);shadow=1;" vertex="1" parent="WIyWlLk6GJQsqaUBKTNV-1">
          <mxGeometry x="50" y="50" width="100" height="30" as="geometry" />
        </mxCell>
        <mxCell id="jbLbkhpGSwv3w22Gmv-Q-37" style="edgeStyle=orthogonalEdgeStyle;rounded=0;orthogonalLoop=1;jettySize=auto;html=1;exitX=0.5;exitY=0;exitDx=0;exitDy=0;entryX=0.436;entryY=1.12;entryDx=0;entryDy=0;entryPerimeter=0;" edge="1" parent="WIyWlLk6GJQsqaUBKTNV-1" source="jbLbkhpGSwv3w22Gmv-Q-34" target="jbLbkhpGSwv3w22Gmv-Q-36">
          <mxGeometry relative="1" as="geometry" />
        </mxCell>
      </root>
    </mxGraphModel>
  </diagram>
</mxfile>
